<?xml version="1.0" encoding="UTF-8" standalone="no"?><!DOCTYPE svg PUBLIC "-//W3C//DTD SVG 1.1//EN" "http://www.w3.org/Graphics/SVG/1.1/DTD/svg11.dtd"><svg width="100%" height="100%" viewBox="0 0 20 18" version="1.1" xmlns="http://www.w3.org/2000/svg" xmlns:xlink="http://www.w3.org/1999/xlink" xml:space="preserve" xmlns:serif="http://www.serif.com/" style="fill-rule:evenodd;clip-rule:evenodd;stroke-linejoin:round;stroke-miterlimit:2;"><g id="Gruppe_47"><path id="Pfad_153" d="M4.562,8.875c-2.503,0 -4.562,2.059 -4.562,4.562c-0,2.503 2.059,4.562 4.562,4.562c2.503,0 4.562,-2.059 4.562,-4.562c-0,-2.503 -2.059,-4.562 -4.562,-4.562Zm1.8,7.934l-3.864,-0l0,-0.806c0,-0.11 0.09,-0.2 0.2,-0.2l0.021,-0l-0,-0.078c-0,-0.099 0.081,-0.18 0.18,-0.18c0,-0 0.001,-0 0.001,-0l3.063,-0c0,-0 0.001,-0 0.001,-0c0.098,-0 0.179,0.081 0.179,0.179l-0,0.079l0.021,-0c0.11,-0 0.2,0.09 0.2,0.2l-0.002,0.806Zm-0.13,-2.873c-0.136,0.426 -0.255,0.86 -0.353,1.3c-0.012,0.061 -0.017,0.124 -0.015,0.186l-2.944,-0c-0.007,-0.069 -0.013,-0.138 -0.014,-0.207c0.015,-0.407 0.144,-0.802 0.372,-1.139c0.274,-0.431 0.598,-0.828 0.967,-1.182c0.038,-0.037 0.075,-0.077 0.137,-0.142c-0.284,0.056 -0.578,0.027 -0.845,-0.085c-0.168,-0.063 -0.358,-0.013 -0.473,0.124c-0.225,0.277 -0.624,0.348 -0.931,0.164c-0.173,-0.117 -0.273,-0.316 -0.263,-0.525c0.018,-0.052 0.024,-0.107 0.016,-0.161c-0.055,-0.161 0.03,-0.243 0.141,-0.334c0.26,-0.211 0.516,-0.428 0.761,-0.655c0.116,-0.123 0.225,-0.253 0.327,-0.388c0.047,-0.057 0.102,-0.106 0.164,-0.145c0.08,-0.039 0.164,-0.073 0.249,-0.1c0.253,-0.1 0.253,-0.1 0.253,-0.383c0.074,-0.023 0.149,-0.041 0.225,-0.052c0.138,-0.011 0.176,-0.087 0.165,-0.212c-0.008,-0.089 -0.011,-0.179 -0.01,-0.269c-0,-0.061 0.011,-0.121 0.021,-0.216c0.188,0.144 0.346,0.323 0.466,0.527c0.035,0.057 0.088,0.1 0.15,0.124c0.778,0.224 1.379,0.848 1.575,1.633c0.18,0.709 0.132,1.457 -0.136,2.137l-0.005,-0Z" style="fill:#305165;fill-rule:nonzero;"/><path id="Pfad_154" d="M9.997,0c-2.503,0 -4.562,2.059 -4.562,4.562c0,2.503 2.059,4.562 4.562,4.562c2.503,0 4.562,-2.059 4.562,-4.562c0,-2.503 -2.059,-4.562 -4.562,-4.562Zm-2.517,5.594c-0.063,-0.045 -0.1,-0.117 -0.1,-0.195c-0,-0.054 0.018,-0.107 0.052,-0.149c0.058,-0.074 0.345,-0.362 0.345,-0.362c0.131,-0.081 0.303,-0.061 0.411,0.049c0.163,0.147 0.018,0.376 0.016,0.378c-0.09,0.098 -0.186,0.19 -0.289,0.274c-0.126,0.101 -0.307,0.103 -0.435,0.005Zm0.61,0.461c-0.064,-0.045 -0.102,-0.118 -0.102,-0.196c0,-0.054 0.019,-0.107 0.053,-0.149c0.058,-0.074 0.584,-0.6 0.584,-0.6c0.131,-0.081 0.303,-0.061 0.411,0.049c0.079,0.079 0.101,0.199 0.053,0.3c-0.016,0.042 -0.04,0.08 -0.071,0.112c-0.1,0.1 -0.379,0.388 -0.5,0.482c-0.118,0.115 -0.309,0.117 -0.428,0.003l0,-0.001Zm0.608,0.46c-0.064,-0.045 -0.102,-0.118 -0.102,-0.196c0,-0.054 0.019,-0.107 0.053,-0.149c0.058,-0.074 0.584,-0.6 0.584,-0.6c0.131,-0.081 0.303,-0.061 0.411,0.049c0.064,0.058 0.092,0.146 0.073,0.23c-0.012,0.075 -0.047,0.145 -0.1,0.2c-0.107,0.11 -0.372,0.379 -0.488,0.47c-0.119,0.116 -0.312,0.116 -0.431,-0.001l0,-0.003Zm0.814,0.4c-0.128,-0.048 -0.245,-0.121 -0.345,-0.214l0.608,-0.641c0,-0 0.049,0.016 0.164,0.164c0.115,0.148 -0.049,0.214 -0.115,0.362c-0.066,0.148 0.066,0.247 0.2,0.3c-0.168,0.038 -0.341,0.049 -0.512,0.032l0,-0.003Zm3.173,-0.986c-0.11,0.094 -0.266,0.113 -0.395,0.049c-0.129,-0.064 -1.1,-1.1 -1.217,-1.2c-0.117,-0.1 -0.1,0.082 -0.1,0.082l1.134,1.118c0.055,0.128 0.029,0.277 -0.066,0.378c-0.104,0.093 -0.259,0.107 -0.378,0.033c-0.119,-0.074 -0.838,-0.838 -0.954,-0.921c-0.116,-0.083 -0.082,0.115 -0.082,0.115l0.707,0.674c0,-0 0.164,0.279 0,0.46c-0.103,0.101 -0.267,0.108 -0.378,0.016c-0.111,-0.092 -0.362,-0.362 -0.493,-0.46c-0.131,-0.098 -0.1,0.082 -0.1,0.082c0,-0 0.148,0.132 0.427,0.427c-0.28,0.263 -0.691,0.049 -0.806,-0.016c-0.115,-0.065 0.082,-0.362 0.1,-0.477c0.018,-0.115 -0.1,-0.214 -0.247,-0.362c0.049,-0.329 -0.066,-0.411 -0.173,-0.485c-0.138,-0.055 -0.288,-0.075 -0.436,-0.058c0.02,-0.213 -0.121,-0.41 -0.329,-0.46c-0.23,-0.082 -0.395,0.115 -0.51,0.23c-0.015,-0.143 -0.087,-0.273 -0.2,-0.362c-0.085,-0.066 -0.195,-0.09 -0.3,-0.066c-0.13,0.036 -0.249,0.105 -0.345,0.2l-1.118,-0.921c-0.181,-0.148 -0.033,-0.247 -0.033,-0.247l0.9,-1.3c0.09,-0.14 0.156,-0.123 0.222,-0.074c0.214,0.064 0.435,0.097 0.658,0.1c0.148,-0 0.46,-0.23 0.773,-0.279c0.343,-0.057 0.695,0.033 0.97,0.247c-0.049,0.033 -0.378,0.164 -0.756,0.937c-0.395,0.937 -0.115,0.986 0.066,1.069c0.181,0.083 0.378,-0.082 0.477,-0.164c0.099,-0.082 0.592,-0.625 0.74,-0.773c0.148,-0.148 0.189,-0.041 0.189,-0.041l2.039,2.039c0,-0 0.16,0.249 0.014,0.413l0,-0.003Zm0.888,-1.628c-0.132,0.1 -1.134,0.756 -1.134,0.756l-1.718,-1.685c-0.033,-0.048 -0.088,-0.077 -0.146,-0.077c-0.043,-0 -0.085,0.016 -0.117,0.044c-0.24,0.197 -0.461,0.418 -0.658,0.658c-0.148,0.214 -0.526,0.411 -0.625,0.279c-0.192,-0.257 0.148,-0.986 0.37,-1.258c0.236,-0.365 0.599,-0.628 1.019,-0.74c0.362,-0.023 0.724,0.046 1.052,0.2c0.215,0.137 0.47,0.195 0.723,0.164c0.23,-0.066 0.345,-0.1 0.411,-0c0.066,0.1 0.871,1.463 0.871,1.463c0,0 0.083,0.101 -0.049,0.2l0.001,-0.004Z" style="fill:#305165;fill-rule:nonzero;"/><g id="Gruppe_45"><path id="Pfad_155" d="M17.804,11.516l-1.095,0c-0.019,-0 -0.035,-0.016 -0.035,-0.035l-0,-1.125c-0,-0.019 -0.016,-0.035 -0.035,-0.035l-3.177,0.014c-0.019,0.001 -0.034,0.016 -0.034,0.035l-0,6.148c-0,0.019 0.016,0.035 0.035,0.035l4.341,0c0.019,-0.001 0.034,-0.016 0.034,-0.035l-0,-1.875l-0.6,0.635l-0.992,-1.28l0.484,-0.375l0.553,0.714l0.552,-0.587l0,-2.2c-0,-0.017 -0.014,-0.032 -0.031,-0.034Zm-0.968,4l0.781,0l-0,0.9l-0.781,0l0,-0.9Zm-2.963,-4.67l0.773,0l0,0.23l-0.773,0l0,-0.23Zm0,0.567l1.738,0l0,0.23l-1.738,0l0,-0.23Zm1.8,2.618l-1.8,0l0,-0.49l1.8,0l0,0.49Zm1.225,-0.689l-3.024,0l0,-0.49l3.024,0l0,0.49Z" style="fill:#305165;fill-rule:nonzero;"/><path id="Pfad_156" d="M15.419,8.875c-2.503,-0 -4.562,2.059 -4.562,4.562c0,2.503 2.059,4.562 4.562,4.562c2.503,-0 4.562,-2.059 4.562,-4.562c0,-2.503 -2.059,-4.562 -4.562,-4.562Zm2.649,5.525l-0,2.349c-0,0.019 -0.016,0.035 -0.035,0.035l-4.8,-0c-0.019,-0.001 -0.034,-0.016 -0.034,-0.035l0,-6.606c-0,-0.019 0.015,-0.034 0.034,-0.035l3.543,-0.016c0.009,-0 0.018,0.003 0.025,0.01l1.257,1.257c0.006,0.006 0.01,0.015 0.01,0.024l-0,2.121l0.895,-0.952l0.446,0.419l-1.341,1.429Z" style="fill:#305165;fill-rule:nonzero;"/><path id="Pfad_157" d="M16.939,11.286l0.638,0c0.019,-0.001 0.034,-0.016 0.034,-0.035c-0,-0.009 -0.004,-0.018 -0.01,-0.024l-0.638,-0.638c-0.006,-0.006 -0.015,-0.01 -0.024,-0.01c-0.019,0 -0.034,0.015 -0.035,0.034l0,0.638c0,0.019 0.016,0.035 0.035,0.035Z" style="fill:#305165;fill-rule:nonzero;"/></g><g id="Gruppe_46"><path id="Pfad_158" d="M4.263,8.454c0.221,-0.767 0.595,-1.482 1.1,-2.1c-0.121,-0.314 -0.211,-0.64 -0.266,-0.972c-0.863,0.89 -1.465,2 -1.739,3.209c0.297,-0.073 0.6,-0.119 0.905,-0.137Z" style="fill:#305165;fill-rule:nonzero;"/><path id="Pfad_159" d="M14.638,6.459c0.462,0.593 0.806,1.269 1.014,1.992c0.305,0.014 0.608,0.056 0.905,0.125c-0.265,-1.153 -0.827,-2.216 -1.632,-3.083c-0.063,0.331 -0.159,0.655 -0.287,0.966Z" style="fill:#305165;fill-rule:nonzero;"/><path id="Pfad_160" d="M11.08,15.907c-0.721,0.137 -1.461,0.14 -2.183,0.01c-0.153,0.266 -0.33,0.518 -0.529,0.752c1.064,0.255 2.174,0.25 3.236,-0.013c-0.197,-0.233 -0.373,-0.484 -0.524,-0.749Z" style="fill:#305165;fill-rule:nonzero;"/></g></g></svg>